<svg version="1.1" preserveAspectRatio="none" xmlns="http://www.w3.org/2000/svg" width="200" height="200" viewBox="0 0 500 500"><rect width="100%" height="100%" fill="#F5F5F5" fill-opacity="1"/><svg viewBox="73.8068 138.5278 338.9929 184" width="333" height="180.74714839160347" x="83.5px" y="159.6264px" xmlns="http://www.w3.org/2000/svg" xmlns:xlink="http://www.w3.org/1999/xlink" preserveAspectRatio="none"><defs></defs><style>.companyName {fill:#08376B;fill-opacity:1;}.icon1 {fill:#35C0ED;fill-opacity:1;}.icon2 {fill:#9AEBA6;fill-opacity:1;}.icon3 {fill:#2F90B0;fill-opacity:1;}.icon3-str {stroke:#2F90B0;stroke-opacity:1;}.shapeStroke-str {stroke:#08376B;stroke-opacity:1;}.text {fill:#08376B;fill-opacity:1;}</style><g opacity="1" transform="rotate(0 73.8068 153.5278)">
<svg width="101.7189" height="154" x="73.8068" y="153.5278" version="1.1" preserveAspectRatio="none" viewBox="47.100006103515625 19.920000076293945 105.80084228515625 160.1799774169922">
  <g transform="matrix(1 0 0 1 0 0)" ><g><path d="M137.4 88c-1.9-1.1-4.4-1.3-7.4-.7-5.1 1-10.2 4.8-9.7 9.9.4 4 3.9 6.1 7.3 8.1 2.2 1.3 4.5 2.7 5.9 4.6 1.5 2 1.7 5 .6 7.7s-3.4 4.6-5.9 4.9c-3.6.5-7.4-1.3-11.9-5.8l-1.1-1.1c-1.3-1.3-2.6-2.6-4-3.7V70.1c0-.5-.4-.9-.9-.9s-.9.4-.9.9v40.6c-1.1-.8-2.3-1.5-3.7-1.9V70.1c0-.5-.4-.9-.9-.9s-.9.4-.9.9v38.1c-1.2-.3-2.4-.3-3.7-.2V61.4c0-.5-.4-.9-.9-.9s-.9.4-.9.9v46.9c-1.3.2-2.5.6-3.7 1.1V70.1c0-.5-.4-.9-.9-.9s-.9.4-.9.9v40c-1.3.6-2.5 1.3-3.7 2.1V70.1c0-.5-.4-.9-.9-.9s-.3.4-.3.9v43.2c-.5.3-1 .7-1.5 1-3.3 2.3-6.8 4.8-10.7 5.7-4.6 1.1-10.5-.6-12-5-1.3-4 1.7-8.4 5.1-10.5 1-.6 2-1.1 3.1-1.6 1.6-.7 3.3-1.5 4.7-2.7 2.6-2 4.3-5.8 2.5-8.8-1.2-2-3.3-2.7-5.4-3.5-2-.7-3.9-1.4-4.5-3-1.2-2.9 2.5-5.8 4.8-7.3 3.7-2.4 6.9-6.1 4.9-9.7-.2-.4-.8-.6-1.2-.3-.4.2-.6.8-.3 1.2 1.4 2.5-1.5 5.5-4.3 7.4-4.8 3.1-6.7 6.4-5.5 9.4 1 2.3 3.3 3.2 5.6 4 1.9.7 3.7 1.3 4.5 2.7 1.3 2.1-.1 5-2.1 6.6-1.3 1-2.8 1.7-4.4 2.5-1.1.5-2.2 1-3.3 1.7-4.1 2.5-7.5 7.6-5.9 12.5 1.8 5.5 8.7 7.5 14 6.2 4.2-1 7.8-3.6 11.3-6 .2-.1.3-.2.5-.4v41.1c0 .5.4.9.9.9s.9-.4.9-.9v-42.2c.1-.1.2-.1.3-.2 1.1-.7 2.2-1.4 3.4-2v67.1c0 .5.4.9.9.9s.9-.4.9-.9v-68c1.3-.6 2.5-1 3.7-1.2v57.8c0 .5.4.9.9.9s.9-.4.9-.9v-58.1c1.2-.1 2.3 0 3.4.2.1 0 .2 0 .3.1v46.5c0 .5.4.9.9.9s.9-.4.9-.9v-45.9c1.3.6 2.5 1.3 3.7 2.2v48.3c0 .5.4.9.9.9s.9-.4.9-.9v-46.8c.9.9 1.8 1.8 2.7 2.6l1.1 1.1c2.8 2.8 7.1 6.3 12 6.3.4 0 .9 0 1.4-.1 3.1-.4 5.9-2.7 7.3-6 1.4-3.3 1.1-6.9-.8-9.4-1.6-2.2-4-3.6-6.4-5-3.2-1.9-6.1-3.7-6.5-6.8-.4-3.9 3.9-7.1 8.3-8 2.7-.5 4.7-.4 6.3.5 1.6.9 2.8 3 2 4.7-.5.6-1.1 1.3-1.4 1.3-.5 0-.8.5-.8.9 0 .5.4.8.9.8 1.2-.1 2.4-1.6 2.7-2.1l.1-.1c.8-2.6-.8-5.7-3.2-7z" data-color="1" class="icon1"></path><path d="M109.1 65.8c-.3-.3-.9-.3-1.2 0l-17 17c-.3.3-.3.9 0 1.2.3.3.9.3 1.2 0l17-17c.4-.3.4-.8 0-1.2z" data-color="2" class="icon2"></path><path d="M105.6 62.3c-.3-.3-.9-.3-1.2 0l-17 17c-.3.3-.3.9 0 1.2.3.3.9.3 1.2 0l17-17c.4-.3.4-.8 0-1.2z" data-color="2" class="icon2"></path><path d="M150.4 26.2l.6-.6-.1-.1c.8-1.4.6-3.3-.6-4.5-1.2-1.2-3-1.4-4.5-.6l-.1-.1-37.1 37.1c-2.6-1.1-5.4-.9-7.1.7L86.4 73.3c-.3.3-.4.9 0 1.2.3.3.9.4 1.2 0l15.1-15.1c1.3-1.2 3.6-1.3 5.7-.2l.6.3 37.2-37.2.1-.1c.8-.7 2-.7 2.7 0 .8.8.8 2 0 2.7l-37.3 37.3.3.6c1.2 2.2 1.2 4.5-.1 5.9L97 83.9c-.3.3-.4.9 0 1.2.3.3.9.4 1.2 0L113.3 70c1.6-1.8 1.8-4.6.6-7.3l36.5-36.5z" data-color="2" class="icon2"></path><path d="M129.7 55.7c-.4-.3-.9-.2-1.2.2-.3.4-.2.9.2 1.2 14.1 9.6 22.5 25.4 22.5 42.4 0 22.4-14.3 42-35.6 48.8-.5.1-.7.6-.6 1.1.1.5.6.7 1.1.6 22-7 36.8-27.3 36.8-50.4.1-17.6-8.6-34-23.2-43.9z" data-color="2" class="icon2"></path><path d="M82.9 147.9c-20.4-7.2-34.2-26.6-34.2-48.3 0-28.2 23-51.2 51.3-51.2 2.5 0 5 .2 7.5.5.5.1.9-.3 1-.8.1-.5-.3-.9-.7-1-2.6-.4-5.1-.6-7.7-.6-29.2 0-53 23.7-53 52.9 0 22.4 14.2 42.5 35.3 49.9.4.2.9-.1 1.1-.5.1-.3-.1-.8-.6-.9z" data-color="2" class="icon2"></path></g></g>
</svg>
</g><g opacity="1" transform="rotate(0 238.5257 153.5278)">
<svg width="148.3258" height="120" x="238.5257" y="153.5278" version="1.1" preserveAspectRatio="none" viewBox="4.8 -28 98.83999999999999 79.96">
  <g transform="matrix(1 0 0 1 0 0)" class="companyName"><path id="id-D6z1nYkh9" d="M8.92-28L4.80-28L14.48-10.60L14.48 0L18.12 0L18.12-10.96L27.96-28L25.80-28L17.24-13.24L17.08-13.24L8.92-28Z M51.88-9.96L51.88-9.96Q51.88-7.88 51.16-5.98Q50.44-4.08 49.10-2.64Q47.76-1.20 45.86-0.36Q43.96 0.48 41.60 0.48L41.60 0.48Q39.20 0.48 37.26-0.38Q35.32-1.24 33.98-2.68Q32.64-4.12 31.90-6.02Q31.16-7.92 31.16-9.96L31.16-9.96Q31.16-12.04 31.90-13.94Q32.64-15.84 33.98-17.28Q35.32-18.72 37.26-19.58Q39.20-20.44 41.60-20.44L41.60-20.44Q43.96-20.44 45.86-19.58Q47.76-18.72 49.10-17.28Q50.44-15.84 51.16-13.94Q51.88-12.04 51.88-9.96ZM48.08-9.96L48.08-9.96Q48.08-12.76 47.48-14.50Q46.88-16.24 45.92-17.20Q44.96-18.16 43.80-18.50Q42.64-18.84 41.56-18.84L41.56-18.84Q40.48-18.84 39.32-18.50Q38.16-18.16 37.18-17.20Q36.20-16.24 35.58-14.50Q34.96-12.76 34.96-9.96L34.96-9.96Q34.96-7.20 35.58-5.46Q36.20-3.72 37.18-2.76Q38.16-1.80 39.32-1.46Q40.48-1.12 41.56-1.12L41.56-1.12Q42.64-1.12 43.80-1.46Q44.96-1.80 45.92-2.76Q46.88-3.72 47.48-5.46Q48.08-7.20 48.08-9.96Z M60.48-20L57.08-20L57.08-7Q57.08-6.28 57.22-5.02Q57.36-3.76 58.04-2.54Q58.72-1.32 60.18-0.42Q61.64 0.48 64.28 0.48L64.28 0.48Q65.44 0.52 66.82 0.02Q68.20-0.48 69.60-1.88L69.60-1.88L70.24-2.52L70.40-2.52L70.40 0L73.80 0L73.80-20L70.40-20L70.40-7.60Q70.40-6.04 69.96-4.92Q69.52-3.80 68.80-3.06Q68.08-2.32 67.12-1.96Q66.16-1.60 65.12-1.60L65.12-1.60Q63.44-1.60 62.50-2.26Q61.56-2.92 61.10-3.80Q60.64-4.68 60.56-5.54Q60.48-6.40 60.48-6.80L60.48-6.80L60.48-20Z M83.72-20L80.32-20L80.32 0L83.72 0L83.72-12.08Q83.72-13.72 84.10-14.86Q84.48-16 85.08-16.72Q85.68-17.44 86.40-17.76Q87.12-18.08 87.80-18.08L87.80-18.08Q88.72-18.08 89.50-17.48Q90.28-16.88 90.64-16.36L90.64-16.36L92-18.84Q91.64-19.32 91.14-19.64Q90.64-19.96 90.14-20.14Q89.64-20.32 89.22-20.38Q88.80-20.44 88.60-20.44L88.60-20.44Q86.92-20.44 85.80-19.52Q84.68-18.60 83.96-16.80L83.96-16.80L83.72-16.80L83.72-20Z M4.80 14L4.80 42L14.84 42Q17.52 42 19.36 41.30Q21.20 40.60 22.32 39.48Q23.44 38.36 23.94 36.94Q24.44 35.52 24.44 34.08L24.44 34.08Q24.44 31.80 23.46 30.44Q22.48 29.08 21.12 28.36Q19.76 27.64 18.32 27.40Q16.88 27.16 16 27.12L16 27.12L16 26.96Q17.40 26.96 18.64 26.42Q19.88 25.88 20.82 25.02Q21.76 24.16 22.32 23.02Q22.88 21.88 22.88 20.60L22.88 20.60Q22.88 19.48 22.40 18.32Q21.92 17.16 20.94 16.20Q19.96 15.24 18.42 14.62Q16.88 14 14.80 14L14.80 14L4.80 14ZM14.24 40.24L8.44 40.24L8.44 28L12.84 28Q14.80 28 16.24 28.52Q17.68 29.04 18.62 29.92Q19.56 30.80 20.02 31.96Q20.48 33.12 20.48 34.40L20.48 34.40Q20.48 35.80 19.98 36.88Q19.48 37.96 18.64 38.72Q17.80 39.48 16.66 39.86Q15.52 40.24 14.24 40.24L14.24 40.24ZM13.24 26.24L8.44 26.24L8.44 15.76L13.32 15.76Q14.88 15.76 15.98 16.20Q17.08 16.64 17.78 17.36Q18.48 18.08 18.80 19Q19.12 19.92 19.12 20.84L19.12 20.84Q19.12 22 18.66 23Q18.20 24 17.38 24.72Q16.56 25.44 15.50 25.84Q14.44 26.24 13.24 26.24L13.24 26.24Z M33.84 42L33.84 14L30.44 14L30.44 42L33.84 42Z M60.56 32.04L60.56 32.04Q60.56 34.12 59.84 36.02Q59.12 37.92 57.78 39.36Q56.44 40.80 54.54 41.64Q52.64 42.48 50.28 42.48L50.28 42.48Q47.88 42.48 45.94 41.62Q44 40.76 42.66 39.32Q41.32 37.88 40.58 35.98Q39.84 34.08 39.84 32.04L39.84 32.04Q39.84 29.96 40.58 28.06Q41.32 26.16 42.66 24.72Q44 23.28 45.94 22.42Q47.88 21.56 50.28 21.56L50.28 21.56Q52.64 21.56 54.54 22.42Q56.44 23.28 57.78 24.72Q59.12 26.16 59.84 28.06Q60.56 29.96 60.56 32.04ZM56.76 32.04L56.76 32.04Q56.76 29.24 56.16 27.50Q55.56 25.76 54.60 24.80Q53.64 23.84 52.48 23.50Q51.32 23.16 50.24 23.16L50.24 23.16Q49.16 23.16 48 23.50Q46.84 23.84 45.86 24.80Q44.88 25.76 44.26 27.50Q43.64 29.24 43.64 32.04L43.64 32.04Q43.64 34.80 44.26 36.54Q44.88 38.28 45.86 39.24Q46.84 40.20 48 40.54Q49.16 40.88 50.24 40.88L50.24 40.88Q51.32 40.88 52.48 40.54Q53.64 40.20 54.60 39.24Q55.56 38.28 56.16 36.54Q56.76 34.80 56.76 32.04Z M80.04 38.80L80.04 43.68Q80.04 45.52 79.60 46.80Q79.16 48.08 78.38 48.88Q77.60 49.68 76.54 50.04Q75.48 50.40 74.28 50.40L74.28 50.40Q72.16 50.40 70.86 49.32Q69.56 48.24 68.48 46.44L68.48 46.44L66.28 48.44Q66.56 48.80 67.16 49.38Q67.76 49.96 68.68 50.54Q69.60 51.12 70.88 51.54Q72.16 51.96 73.80 51.96L73.80 51.96Q76.84 51.96 78.72 51.10Q80.60 50.24 81.64 48.80Q82.68 47.36 83.06 45.50Q83.44 43.64 83.44 41.64L83.44 41.64L83.44 22L80.04 22L80.04 25.12L79.88 25.12Q79.40 23.44 77.82 22.50Q76.24 21.56 73.68 21.56L73.68 21.56Q71.64 21.56 69.96 22.30Q68.28 23.04 67.08 24.40Q65.88 25.76 65.22 27.68Q64.56 29.60 64.56 31.96L64.56 31.96Q64.56 34.36 65.22 36.30Q65.88 38.24 67.08 39.62Q68.28 41 69.94 41.74Q71.60 42.48 73.64 42.48L73.64 42.48Q75.88 42.48 77.54 41.60Q79.20 40.72 79.88 38.80L79.88 38.80L80.04 38.80ZM80.04 30.52L80.04 33.48Q80.04 35.16 79.58 36.44Q79.12 37.72 78.36 38.60Q77.60 39.48 76.60 39.94Q75.60 40.40 74.52 40.40L74.52 40.40Q73.56 40.40 72.46 40.06Q71.36 39.72 70.42 38.80Q69.48 37.88 68.86 36.20Q68.24 34.52 68.24 31.88L68.24 31.88Q68.24 29.08 69 27.42Q69.76 25.76 70.78 24.88Q71.80 24 72.86 23.74Q73.92 23.48 74.52 23.48L74.52 23.48Q75.84 23.48 76.88 24.06Q77.92 24.64 78.62 25.62Q79.32 26.60 79.68 27.88Q80.04 29.16 80.04 30.52L80.04 30.52Z M100.32 26.56L102.60 26.56Q102.60 25.48 102.04 24.56Q101.48 23.64 100.50 22.98Q99.52 22.32 98.22 21.94Q96.92 21.56 95.44 21.56L95.44 21.56Q94.04 21.56 92.82 21.92Q91.60 22.28 90.70 23Q89.80 23.72 89.28 24.78Q88.76 25.84 88.76 27.24L88.76 27.24Q88.76 29.16 89.64 30.28Q90.52 31.40 91.84 32.08Q93.16 32.76 94.70 33.18Q96.24 33.60 97.56 34.10Q98.88 34.60 99.76 35.36Q100.64 36.12 100.64 37.44L100.64 37.44Q100.64 38 100.46 38.60Q100.28 39.20 99.80 39.70Q99.32 40.20 98.48 40.54Q97.64 40.88 96.36 40.88L96.36 40.88Q94.76 40.88 93.66 40.38Q92.56 39.88 91.86 39.18Q91.16 38.48 90.86 37.76Q90.56 37.04 90.56 36.56L90.56 36.56L87.96 36.56Q87.96 37.68 88.48 38.74Q89 39.80 90.06 40.64Q91.12 41.48 92.66 41.98Q94.20 42.48 96.24 42.48L96.24 42.48Q99.92 42.48 101.78 40.86Q103.64 39.24 103.64 36.60L103.64 36.60Q103.64 34.68 102.74 33.52Q101.84 32.36 100.48 31.66Q99.12 30.96 97.54 30.52Q95.96 30.08 94.60 29.60Q93.24 29.12 92.34 28.44Q91.44 27.76 91.44 26.52L91.44 26.52Q91.44 26 91.64 25.42Q91.84 24.84 92.32 24.34Q92.80 23.84 93.60 23.50Q94.40 23.16 95.60 23.16L95.60 23.16Q96.80 23.16 97.68 23.50Q98.56 23.84 99.16 24.34Q99.76 24.84 100.04 25.44Q100.32 26.04 100.32 26.56L100.32 26.56Z"/></g>
</svg>
</g><g opacity="1" transform="rotate(0 205.5257 138.5278)">
<svg width="3" height="184" x="205.5257" y="138.5278" version="1.1" preserveAspectRatio="none" viewBox="0 0 3 184">
  <defs><rect x="0" y="0" width="3" height="184" rx="0px" ry="0px" id="id-tBXipXk0b1679988241946"></rect></defs><use class="companyName shapeStroke-str" style="stroke-width:0;" xlink:href="#id-tBXipXk0b1679988241946"></use>
</svg>
</g><g opacity="1" transform="rotate(0 238.5257 289.5278)">
<svg width="174.274" height="18" x="238.5257" y="289.5278" version="1.1" preserveAspectRatio="none" viewBox="4.56 -29.68 289.36 29.88">
  <g transform="matrix(1 0 0 1 0 0)" class="text"><path id="id-D-YM9nyY413" d="M26.92 0L23.68 0L17.28-9Q16.20-8.88 15.04-8.88L15.04-8.88L7.52-8.88L7.52 0L4.56 0L4.56-28L15.04-28Q20.40-28 23.44-25.44Q26.48-22.88 26.48-18.40L26.48-18.40Q26.48-15.12 24.82-12.86Q23.16-10.60 20.08-9.60L20.08-9.60L26.92 0ZM14.96-11.40Q19.12-11.40 21.32-13.24Q23.52-15.08 23.52-18.40L23.52-18.40Q23.52-21.80 21.32-23.62Q19.12-25.44 14.96-25.44L14.96-25.44L7.52-25.44L7.52-11.40L14.96-11.40Z M52.44-10.52L52.40-9.64L34.80-9.64Q35.04-6.36 37.32-4.34Q39.60-2.32 43.08-2.32L43.08-2.32Q45.04-2.32 46.68-3.02Q48.32-3.72 49.52-5.08L49.52-5.08L51.12-3.24Q49.72-1.56 47.62-0.68Q45.52 0.20 43 0.20L43 0.20Q39.76 0.20 37.26-1.18Q34.76-2.56 33.36-5Q31.96-7.44 31.96-10.52L31.96-10.52Q31.96-13.60 33.30-16.04Q34.64-18.48 36.98-19.84Q39.32-21.20 42.24-21.20L42.24-21.20Q45.16-21.20 47.48-19.84Q49.80-18.48 51.12-16.06Q52.44-13.64 52.44-10.52L52.44-10.52ZM42.24-18.76Q39.20-18.76 37.14-16.82Q35.08-14.88 34.80-11.76L34.80-11.76L49.72-11.76Q49.44-14.88 47.38-16.82Q45.32-18.76 42.24-18.76L42.24-18.76Z M66.20-21.20Q70.32-21.20 72.52-19.14Q74.72-17.08 74.72-13.04L74.72-13.04L74.72 0L72 0L72-3.28Q71.04-1.64 69.18-0.72Q67.32 0.20 64.76 0.20L64.76 0.20Q61.24 0.20 59.16-1.48Q57.08-3.16 57.08-5.92L57.08-5.92Q57.08-8.60 59.02-10.24Q60.96-11.88 65.20-11.88L65.20-11.88L71.88-11.88L71.88-13.16Q71.88-15.88 70.36-17.30Q68.84-18.72 65.92-18.72L65.92-18.72Q63.92-18.72 62.08-18.06Q60.24-17.40 58.92-16.24L58.92-16.24L57.64-18.36Q59.24-19.72 61.48-20.46Q63.72-21.20 66.20-21.20L66.20-21.20ZM65.20-2.04Q67.60-2.04 69.32-3.14Q71.04-4.24 71.88-6.32L71.88-6.32L71.88-9.76L65.28-9.76Q59.88-9.76 59.88-6L59.88-6Q59.88-4.16 61.28-3.10Q62.68-2.04 65.20-2.04L65.20-2.04Z M100.08-29.68L102.92-29.68L102.92 0L100.20 0L100.20-4.16Q98.92-2.04 96.82-0.92Q94.72 0.20 92.08 0.20L92.08 0.20Q89.12 0.20 86.72-1.16Q84.32-2.52 82.96-4.96Q81.60-7.40 81.60-10.52L81.60-10.52Q81.60-13.64 82.96-16.08Q84.32-18.52 86.72-19.86Q89.12-21.20 92.08-21.20L92.08-21.20Q94.64-21.20 96.70-20.14Q98.76-19.08 100.08-17.04L100.08-17.04L100.08-29.68ZM92.32-2.32Q94.52-2.32 96.30-3.34Q98.08-4.36 99.10-6.24Q100.12-8.12 100.12-10.52L100.12-10.52Q100.12-12.92 99.10-14.80Q98.08-16.68 96.30-17.70Q94.52-18.72 92.32-18.72L92.32-18.72Q90.08-18.72 88.30-17.70Q86.52-16.68 85.50-14.80Q84.48-12.92 84.48-10.52L84.48-10.52Q84.48-8.12 85.50-6.24Q86.52-4.36 88.30-3.34Q90.08-2.32 92.32-2.32L92.32-2.32Z M129.76 0L129.76-25.44L119.92-25.44L119.92-28L142.56-28L142.56-25.44L132.72-25.44L132.72 0L129.76 0Z M154.28 0.20Q151.24 0.20 148.80-1.18Q146.36-2.56 144.96-5Q143.56-7.44 143.56-10.52L143.56-10.52Q143.56-13.60 144.96-16.04Q146.36-18.48 148.80-19.84Q151.24-21.20 154.28-21.20L154.28-21.20Q157.32-21.20 159.76-19.84Q162.20-18.48 163.58-16.04Q164.96-13.60 164.96-10.52L164.96-10.52Q164.96-7.44 163.58-5Q162.20-2.56 159.76-1.18Q157.32 0.20 154.28 0.20L154.28 0.20ZM154.28-2.32Q156.52-2.32 158.30-3.34Q160.08-4.36 161.08-6.24Q162.08-8.12 162.08-10.52L162.08-10.52Q162.08-12.92 161.08-14.80Q160.08-16.68 158.30-17.70Q156.52-18.72 154.28-18.72L154.28-18.72Q152.04-18.72 150.26-17.70Q148.48-16.68 147.46-14.80Q146.44-12.92 146.44-10.52L146.44-10.52Q146.44-8.12 147.46-6.24Q148.48-4.36 150.26-3.34Q152.04-2.32 154.28-2.32L154.28-2.32Z M184.24 0L184.24-28L187.20-28L187.20-2.56L202.88-2.56L202.88 0L184.24 0Z M226.44-10.52L226.40-9.64L208.80-9.64Q209.04-6.36 211.32-4.34Q213.60-2.32 217.08-2.32L217.08-2.32Q219.04-2.32 220.68-3.02Q222.32-3.72 223.52-5.08L223.52-5.08L225.12-3.24Q223.72-1.56 221.62-0.68Q219.52 0.20 217 0.20L217 0.20Q213.76 0.20 211.26-1.18Q208.76-2.56 207.36-5Q205.96-7.44 205.96-10.52L205.96-10.52Q205.96-13.60 207.30-16.04Q208.64-18.48 210.98-19.84Q213.32-21.20 216.24-21.20L216.24-21.20Q219.16-21.20 221.48-19.84Q223.80-18.48 225.12-16.06Q226.44-13.64 226.44-10.52L226.44-10.52ZM216.24-18.76Q213.20-18.76 211.14-16.82Q209.08-14.88 208.80-11.76L208.80-11.76L223.72-11.76Q223.44-14.88 221.38-16.82Q219.32-18.76 216.24-18.76L216.24-18.76Z M240.20-21.20Q244.32-21.20 246.52-19.14Q248.72-17.08 248.72-13.04L248.72-13.04L248.72 0L246 0L246-3.28Q245.04-1.64 243.18-0.72Q241.32 0.20 238.76 0.20L238.76 0.20Q235.24 0.20 233.16-1.48Q231.08-3.16 231.08-5.92L231.08-5.92Q231.08-8.60 233.02-10.24Q234.96-11.88 239.20-11.88L239.20-11.88L245.88-11.88L245.88-13.16Q245.88-15.88 244.36-17.30Q242.84-18.72 239.92-18.72L239.92-18.72Q237.92-18.72 236.08-18.06Q234.24-17.40 232.92-16.24L232.92-16.24L231.64-18.36Q233.24-19.72 235.48-20.46Q237.72-21.20 240.20-21.20L240.20-21.20ZM239.20-2.04Q241.60-2.04 243.32-3.14Q245.04-4.24 245.88-6.32L245.88-6.32L245.88-9.76L239.28-9.76Q233.88-9.76 233.88-6L233.88-6Q233.88-4.16 235.28-3.10Q236.68-2.04 239.20-2.04L239.20-2.04Z M260.36-16.92Q261.36-19.04 263.34-20.12Q265.32-21.20 268.24-21.20L268.24-21.20L268.24-18.44L267.56-18.48Q264.24-18.48 262.36-16.44Q260.48-14.40 260.48-10.72L260.48-10.72L260.48 0L257.64 0L257.64-21.04L260.36-21.04L260.36-16.92Z M285.28-21.20Q289.24-21.20 291.58-18.90Q293.92-16.60 293.92-12.20L293.92-12.20L293.92 0L291.08 0L291.08-11.92Q291.08-15.20 289.44-16.92Q287.80-18.64 284.76-18.64L284.76-18.64Q281.36-18.64 279.38-16.62Q277.40-14.60 277.40-11.04L277.40-11.04L277.40 0L274.56 0L274.56-21.04L277.28-21.04L277.28-17.16Q278.44-19.08 280.50-20.14Q282.56-21.20 285.28-21.20L285.28-21.20Z"/></g>
</svg>
</g></svg></svg>