<svg version="1.1" preserveAspectRatio="none" xmlns="http://www.w3.org/2000/svg" width="200" height="200" viewBox="0 0 500 500"><rect width="100%" height="100%" fill="#FFFFFF" fill-opacity="1"/><svg viewBox="82.7477 121.0093 245.7509 222" width="333" height="300.81680270550385" x="83.5px" y="99.5916px" xmlns="http://www.w3.org/2000/svg" xmlns:xlink="http://www.w3.org/1999/xlink" preserveAspectRatio="none"><defs></defs><style>.companyName {fill:#F59DAB;fill-opacity:1;}.icon3-str {stroke:#E37045;stroke-opacity:1;}.text {fill:#8A8A8A;fill-opacity:1;}</style><g opacity="1" transform="rotate(0 82.7477 121.0093)">
<svg width="245.7509" height="180" x="82.7477" y="121.0093" version="1.1" preserveAspectRatio="none" viewBox="5.32 -28 106.32 77.88">
  <g transform="matrix(1 0 0 1 0 0)" class="companyName"><path id="id-D6z1nYkh9" d="M28.92-28L17.52-9.52L17.52 0L16.72 0L16.72-9.52L5.32-28L6.24-28L17.12-10.36L28-28L28.92-28Z M39.92 0.12Q37.08 0.12 34.78-1.22Q32.48-2.56 31.18-4.96Q29.88-7.36 29.88-10.36L29.88-10.36Q29.88-13.36 31.18-15.74Q32.48-18.12 34.78-19.46Q37.08-20.80 39.92-20.80L39.92-20.80Q42.76-20.80 45.06-19.46Q47.36-18.12 48.66-15.74Q49.96-13.36 49.96-10.36L49.96-10.36Q49.96-7.36 48.66-4.96Q47.36-2.56 45.06-1.22Q42.76 0.12 39.92 0.12L39.92 0.12ZM39.92-0.64Q42.52-0.64 44.64-1.88Q46.76-3.12 47.96-5.34Q49.16-7.56 49.16-10.36L49.16-10.36Q49.16-13.16 47.96-15.38Q46.76-17.60 44.64-18.82Q42.52-20.04 39.92-20.04L39.92-20.04Q37.32-20.04 35.20-18.82Q33.08-17.60 31.88-15.38Q30.68-13.16 30.68-10.36L30.68-10.36Q30.68-7.56 31.88-5.34Q33.08-3.12 35.20-1.88Q37.32-0.64 39.92-0.64L39.92-0.64Z M74.08-20.68L74.88-20.68L74.88 0L74.08 0L74.08-5.48Q73.16-2.84 71-1.36Q68.84 0.12 65.76 0.12L65.76 0.12Q61.76 0.12 59.52-2.10Q57.28-4.32 57.28-8.48L57.28-8.48L57.28-20.68L58.08-20.68L58.08-8.48Q58.08-4.68 60.08-2.66Q62.08-0.64 65.72-0.64L65.72-0.64Q69.60-0.64 71.84-3.06Q74.08-5.48 74.08-9.44L74.08-9.44L74.08-20.68Z M85.68-15.32Q86.56-17.96 88.64-19.38Q90.72-20.80 93.80-20.80L93.80-20.80L93.80-20L93.56-20Q89.84-20 87.76-17.62Q85.68-15.24 85.68-11.12L85.68-11.12L85.68 0L84.88 0L84.88-20.68L85.68-20.68L85.68-15.32Z M20.28 27.64Q27.32 28.60 27.32 34.68L27.32 34.68Q27.32 38.24 24.78 40.12Q22.24 42 17.20 42L17.20 42L5.32 42L5.32 14L16.40 14Q20.80 14 23.30 15.82Q25.80 17.64 25.80 21.08L25.80 21.08Q25.80 23.72 24.34 25.38Q22.88 27.04 20.28 27.64L20.28 27.64ZM16.56 14.76L6.12 14.76L6.12 27.40L16.56 27.40Q20.60 27.40 22.80 25.78Q25 24.16 25 21.08L25 21.08Q25 18 22.80 16.38Q20.60 14.76 16.56 14.76L16.56 14.76ZM17.36 41.24Q26.52 41.24 26.52 34.68L26.52 34.68Q26.52 31.36 24.22 29.76Q21.92 28.16 17.36 28.16L17.36 28.16L6.12 28.16L6.12 41.24L17.36 41.24Z M35.32 42L35.32 12.32L36.12 12.32L36.12 42L35.32 42Z M53.72 42.12Q50.88 42.12 48.58 40.78Q46.28 39.44 44.98 37.04Q43.68 34.64 43.68 31.64L43.68 31.64Q43.68 28.64 44.98 26.26Q46.28 23.88 48.58 22.54Q50.88 21.20 53.72 21.20L53.72 21.20Q56.56 21.20 58.86 22.54Q61.16 23.88 62.46 26.26Q63.76 28.64 63.76 31.64L63.76 31.64Q63.76 34.64 62.46 37.04Q61.16 39.44 58.86 40.78Q56.56 42.12 53.72 42.12L53.72 42.12ZM53.72 41.36Q56.32 41.36 58.44 40.12Q60.56 38.88 61.76 36.66Q62.96 34.44 62.96 31.64L62.96 31.64Q62.96 28.84 61.76 26.62Q60.56 24.40 58.44 23.18Q56.32 21.96 53.72 21.96L53.72 21.96Q51.12 21.96 49 23.18Q46.88 24.40 45.68 26.62Q44.48 28.84 44.48 31.64L44.48 31.64Q44.48 34.44 45.68 36.66Q46.88 38.88 49 40.12Q51.12 41.36 53.72 41.36L53.72 41.36Z M88.40 21.32L89.20 21.32L89.20 40.16Q89.20 45.12 86.84 47.50Q84.48 49.88 79.64 49.88L79.64 49.88Q76.80 49.88 74.38 48.96Q71.96 48.04 70.48 46.44L70.48 46.44L71.04 45.88Q72.64 47.44 74.84 48.28Q77.04 49.12 79.64 49.12L79.64 49.12Q84.12 49.12 86.26 46.98Q88.40 44.84 88.40 40.28L88.40 40.28L88.40 35.08Q87.32 37.92 84.82 39.62Q82.32 41.32 79.04 41.32L79.04 41.32Q76.16 41.32 73.84 40.02Q71.52 38.72 70.20 36.42Q68.88 34.12 68.88 31.24L68.88 31.24Q68.88 28.36 70.20 26.06Q71.52 23.76 73.84 22.48Q76.16 21.20 79.04 21.20L79.04 21.20Q82.32 21.20 84.82 22.88Q87.32 24.56 88.40 27.36L88.40 27.36L88.40 21.32ZM79.04 40.56Q81.72 40.56 83.86 39.38Q86 38.20 87.20 36.06Q88.40 33.92 88.40 31.24L88.40 31.24Q88.40 28.56 87.20 26.44Q86 24.32 83.86 23.14Q81.72 21.96 79.04 21.96L79.04 21.96Q76.36 21.96 74.22 23.14Q72.08 24.32 70.88 26.44Q69.68 28.56 69.68 31.24L69.68 31.24Q69.68 33.92 70.88 36.06Q72.08 38.20 74.22 39.38Q76.36 40.56 79.04 40.56L79.04 40.56Z M103.96 42.12Q101.48 42.12 99.28 41.32Q97.08 40.52 95.88 39.28L95.88 39.28L96.36 38.64Q97.56 39.80 99.58 40.58Q101.60 41.36 103.96 41.36L103.96 41.36Q107.48 41.36 109.16 40.14Q110.84 38.92 110.84 36.76L110.84 36.76Q110.84 35.20 109.94 34.30Q109.04 33.40 107.74 32.98Q106.44 32.56 104.16 32.12L104.16 32.12Q101.72 31.68 100.22 31.18Q98.72 30.68 97.70 29.58Q96.68 28.48 96.68 26.52L96.68 26.52Q96.68 24.28 98.54 22.74Q100.40 21.20 104 21.20L104 21.20Q105.92 21.20 107.80 21.78Q109.68 22.36 110.84 23.32L110.84 23.32L110.36 23.96Q109.16 23 107.48 22.48Q105.80 21.96 104 21.96L104 21.96Q100.76 21.96 99.14 23.22Q97.52 24.48 97.52 26.52L97.52 26.52Q97.52 28.16 98.44 29.10Q99.36 30.04 100.72 30.48Q102.08 30.92 104.32 31.32L104.32 31.32Q106.76 31.80 108.20 32.28Q109.64 32.76 110.64 33.82Q111.64 34.88 111.64 36.76L111.64 36.76Q111.64 39.20 109.68 40.66Q107.72 42.12 103.96 42.12L103.96 42.12Z"/></g>
</svg>
</g><g opacity="1" transform="rotate(0 82.7477 325.0093)">
<svg width="174.2503" height="18" x="82.7477" y="325.0093" version="1.1" preserveAspectRatio="none" viewBox="4.56 -29.68 289.36 29.88">
  <g transform="matrix(1 0 0 1 0 0)" class="text"><path id="id-D-YM9nyY413" d="M26.92 0L23.68 0L17.28-9Q16.20-8.88 15.04-8.88L15.04-8.88L7.52-8.88L7.52 0L4.56 0L4.56-28L15.04-28Q20.40-28 23.44-25.44Q26.48-22.88 26.48-18.40L26.48-18.40Q26.48-15.12 24.82-12.86Q23.16-10.60 20.08-9.60L20.08-9.60L26.92 0ZM14.96-11.40Q19.12-11.40 21.32-13.24Q23.52-15.08 23.52-18.40L23.52-18.40Q23.52-21.80 21.32-23.62Q19.12-25.44 14.96-25.44L14.96-25.44L7.52-25.44L7.52-11.40L14.96-11.40Z M52.44-10.52L52.40-9.64L34.80-9.64Q35.04-6.36 37.32-4.34Q39.60-2.32 43.08-2.32L43.08-2.32Q45.04-2.32 46.68-3.02Q48.32-3.72 49.52-5.08L49.52-5.08L51.12-3.24Q49.72-1.56 47.62-0.68Q45.52 0.20 43 0.20L43 0.20Q39.76 0.20 37.26-1.18Q34.76-2.56 33.36-5Q31.96-7.44 31.96-10.52L31.96-10.52Q31.96-13.60 33.30-16.04Q34.64-18.48 36.98-19.84Q39.32-21.20 42.24-21.20L42.24-21.20Q45.16-21.20 47.48-19.84Q49.80-18.48 51.12-16.06Q52.44-13.64 52.44-10.52L52.44-10.52ZM42.24-18.76Q39.20-18.76 37.14-16.82Q35.08-14.88 34.80-11.76L34.80-11.76L49.72-11.76Q49.44-14.88 47.38-16.82Q45.32-18.76 42.24-18.76L42.24-18.76Z M66.20-21.20Q70.32-21.20 72.52-19.14Q74.72-17.08 74.72-13.04L74.72-13.04L74.72 0L72 0L72-3.28Q71.04-1.64 69.18-0.72Q67.32 0.20 64.76 0.20L64.76 0.20Q61.24 0.20 59.16-1.48Q57.08-3.16 57.08-5.92L57.08-5.92Q57.08-8.60 59.02-10.24Q60.96-11.88 65.20-11.88L65.20-11.88L71.88-11.88L71.88-13.16Q71.88-15.88 70.36-17.30Q68.84-18.72 65.92-18.72L65.92-18.72Q63.92-18.72 62.08-18.06Q60.24-17.40 58.92-16.24L58.92-16.24L57.64-18.36Q59.24-19.72 61.48-20.46Q63.72-21.20 66.20-21.20L66.20-21.20ZM65.20-2.04Q67.60-2.04 69.32-3.14Q71.04-4.24 71.88-6.32L71.88-6.32L71.88-9.76L65.28-9.76Q59.88-9.76 59.88-6L59.88-6Q59.88-4.16 61.28-3.10Q62.68-2.04 65.20-2.04L65.20-2.04Z M100.08-29.68L102.92-29.68L102.92 0L100.20 0L100.20-4.16Q98.92-2.04 96.82-0.92Q94.72 0.20 92.08 0.20L92.08 0.20Q89.12 0.20 86.72-1.16Q84.32-2.52 82.96-4.96Q81.60-7.40 81.60-10.52L81.60-10.52Q81.60-13.64 82.96-16.08Q84.32-18.52 86.72-19.86Q89.12-21.20 92.08-21.20L92.08-21.20Q94.64-21.20 96.70-20.14Q98.76-19.08 100.08-17.04L100.08-17.04L100.08-29.68ZM92.32-2.32Q94.52-2.32 96.30-3.34Q98.08-4.36 99.10-6.24Q100.12-8.12 100.12-10.52L100.12-10.52Q100.12-12.92 99.10-14.80Q98.08-16.68 96.30-17.70Q94.52-18.72 92.32-18.72L92.32-18.72Q90.08-18.72 88.30-17.70Q86.52-16.68 85.50-14.80Q84.48-12.92 84.48-10.52L84.48-10.52Q84.48-8.12 85.50-6.24Q86.52-4.36 88.30-3.34Q90.08-2.32 92.32-2.32L92.32-2.32Z M129.76 0L129.76-25.44L119.92-25.44L119.92-28L142.56-28L142.56-25.44L132.72-25.44L132.72 0L129.76 0Z M154.28 0.20Q151.24 0.20 148.80-1.18Q146.36-2.56 144.96-5Q143.56-7.44 143.56-10.52L143.56-10.52Q143.56-13.60 144.96-16.04Q146.36-18.48 148.80-19.84Q151.24-21.20 154.28-21.20L154.28-21.20Q157.32-21.20 159.76-19.84Q162.20-18.48 163.58-16.04Q164.96-13.60 164.96-10.52L164.96-10.52Q164.96-7.44 163.58-5Q162.20-2.56 159.76-1.18Q157.32 0.20 154.28 0.20L154.28 0.20ZM154.28-2.32Q156.52-2.32 158.30-3.34Q160.08-4.36 161.08-6.24Q162.08-8.12 162.08-10.52L162.08-10.52Q162.08-12.92 161.08-14.80Q160.08-16.68 158.30-17.70Q156.52-18.72 154.28-18.72L154.28-18.72Q152.04-18.72 150.26-17.70Q148.48-16.68 147.46-14.80Q146.44-12.92 146.44-10.52L146.44-10.52Q146.44-8.12 147.46-6.24Q148.48-4.36 150.26-3.34Q152.04-2.32 154.28-2.32L154.28-2.32Z M184.24 0L184.24-28L187.20-28L187.20-2.56L202.88-2.56L202.88 0L184.24 0Z M226.44-10.52L226.40-9.64L208.80-9.64Q209.04-6.36 211.32-4.34Q213.60-2.32 217.08-2.32L217.08-2.32Q219.04-2.32 220.68-3.02Q222.32-3.72 223.52-5.08L223.52-5.08L225.12-3.24Q223.72-1.56 221.62-0.68Q219.52 0.20 217 0.20L217 0.20Q213.76 0.20 211.26-1.18Q208.76-2.56 207.36-5Q205.96-7.44 205.96-10.52L205.96-10.52Q205.96-13.60 207.30-16.04Q208.64-18.48 210.98-19.84Q213.32-21.20 216.24-21.20L216.24-21.20Q219.16-21.20 221.48-19.84Q223.80-18.48 225.12-16.06Q226.44-13.64 226.44-10.52L226.44-10.52ZM216.24-18.76Q213.20-18.76 211.14-16.82Q209.08-14.88 208.80-11.76L208.80-11.76L223.72-11.76Q223.44-14.88 221.38-16.82Q219.32-18.76 216.24-18.76L216.24-18.76Z M240.20-21.20Q244.32-21.20 246.52-19.14Q248.72-17.08 248.72-13.04L248.72-13.04L248.72 0L246 0L246-3.28Q245.04-1.64 243.18-0.72Q241.32 0.20 238.76 0.20L238.76 0.20Q235.24 0.20 233.16-1.48Q231.08-3.16 231.08-5.92L231.08-5.92Q231.08-8.60 233.02-10.24Q234.96-11.88 239.20-11.88L239.20-11.88L245.88-11.88L245.88-13.16Q245.88-15.88 244.36-17.30Q242.84-18.72 239.92-18.72L239.92-18.72Q237.92-18.72 236.08-18.06Q234.24-17.40 232.92-16.24L232.92-16.24L231.64-18.36Q233.24-19.72 235.48-20.46Q237.72-21.20 240.20-21.20L240.20-21.20ZM239.20-2.04Q241.60-2.04 243.32-3.14Q245.04-4.24 245.88-6.32L245.88-6.32L245.88-9.76L239.28-9.76Q233.88-9.76 233.88-6L233.88-6Q233.88-4.16 235.28-3.10Q236.68-2.04 239.20-2.04L239.20-2.04Z M260.36-16.92Q261.36-19.04 263.34-20.12Q265.32-21.20 268.24-21.20L268.24-21.20L268.24-18.44L267.56-18.48Q264.24-18.48 262.36-16.44Q260.48-14.40 260.48-10.72L260.48-10.72L260.48 0L257.64 0L257.64-21.04L260.36-21.04L260.36-16.92Z M285.28-21.20Q289.24-21.20 291.58-18.90Q293.92-16.60 293.92-12.20L293.92-12.20L293.92 0L291.08 0L291.08-11.92Q291.08-15.20 289.44-16.92Q287.80-18.64 284.76-18.64L284.76-18.64Q281.36-18.64 279.38-16.62Q277.40-14.60 277.40-11.04L277.40-11.04L277.40 0L274.56 0L274.56-21.04L277.28-21.04L277.28-17.16Q278.44-19.08 280.50-20.14Q282.56-21.20 285.28-21.20L285.28-21.20Z"/></g>
</svg>
</g></svg></svg>