<svg version="1.1" preserveAspectRatio="none" xmlns="http://www.w3.org/2000/svg" width="150" height="150" viewBox="0 0 500 500"><rect width="100%" height="100%" fill="#FF2D2D" fill-opacity="1"/><svg viewBox="551.2201 433.7341 362.6571 144" width="333" height="132.22407613142002" x="83.5px" y="183.888px" xmlns="http://www.w3.org/2000/svg" xmlns:xlink="http://www.w3.org/1999/xlink" preserveAspectRatio="none"><defs></defs><style>.companyName {fill:#FFFFFF;fill-opacity:1;}.icon3-str {stroke:#370F49;stroke-opacity:1;}.text {fill:#FFFFFF;fill-opacity:1;}</style><g opacity="1" transform="rotate(0 584.0158 537.7341)">
<svg width="297.0657" height="40" x="584.0158" y="537.7341" version="1.1" preserveAspectRatio="none" viewBox="0.5859 -28.5937 237.14849999999998 31.9336">
  <g transform="matrix(1 0 0 1 0 0)" class="text"><path id="id-6izo4zJp13" d="M35.08-28.59L35.41-28.07Q34.14-27.34 33.03-26.29L33.03-26.29Q34.24-25.76 35.26-24.98Q36.29-24.20 37.04-23.16Q37.79-22.13 38.21-20.83Q38.63-19.53 38.63-17.97L38.63-17.97Q38.63-16.64 38.17-15.46Q37.71-14.28 36.90-13.33Q36.09-12.38 34.97-11.73Q33.85-11.07 32.52-10.82L32.52-10.82Q33.16-9.94 33.56-8.88Q33.96-7.81 33.96-6.56L33.96-6.56Q33.96-6.05 33.83-5.36Q33.69-4.67 33.49-3.91Q33.28-3.14 33.04-2.37Q32.79-1.60 32.59-0.94Q32.38-0.27 32.25 0.23Q32.11 0.74 32.11 0.98L32.11 0.98Q32.11 1.54 32.43 1.87Q32.75 2.19 33.32 2.19L33.32 2.19Q34.36 2.19 35.27 1.75Q36.19 1.31 37.00 0.58Q37.81-0.16 38.54-1.12Q39.26-2.09 39.91-3.14Q40.57-4.20 41.16-5.26Q41.76-6.33 42.32-7.29L42.32-7.29L43.05-6.74Q41.82-4.55 40.73-2.72Q39.65-0.90 38.52 0.42Q37.38 1.74 36.11 2.48Q34.84 3.22 33.22 3.22L33.22 3.22Q31.72 3.22 30.89 2.39Q30.06 1.56 30.06 0.04L30.06 0.04Q30.06-1.02 30.37-1.97Q30.68-2.93 31.06-3.85Q31.45-4.77 31.76-5.68Q32.07-6.60 32.07-7.60L32.07-7.60Q32.07-8.48 31.79-9.24Q31.50-10 31.00-10.68L31.00-10.68Q30.39-10.68 29.62-10.74Q28.85-10.80 28.15-10.98Q27.46-11.15 26.99-11.48Q26.52-11.82 26.52-12.36L26.52-12.36Q26.52-12.85 26.91-13.15Q27.30-13.46 28.07-13.46L28.07-13.46Q28.95-13.46 29.77-13.06Q30.59-12.66 31.39-12.01L31.39-12.01Q32.52-12.27 33.50-12.93Q34.47-13.59 35.19-14.52Q35.90-15.45 36.30-16.58Q36.70-17.71 36.70-18.91L36.70-18.91Q36.70-20.14 36.37-21.16Q36.04-22.19 35.43-23.01Q34.82-23.83 34.00-24.44Q33.18-25.06 32.21-25.47L32.21-25.47Q30.72-23.85 29.49-21.75Q28.26-19.65 27.14-17.31Q26.02-14.98 24.96-12.55Q23.91-10.12 22.76-7.82Q21.62-5.53 20.32-3.50Q19.02-1.46 17.45 0.06Q15.88 1.58 13.96 2.46Q12.03 3.34 9.63 3.34L9.63 3.34Q7.75 3.34 6.11 2.75Q4.47 2.17 3.24 1.03Q2.01-0.12 1.30-1.80Q0.59-3.48 0.59-5.66L0.59-5.66Q0.59-6.99 0.91-8.63Q1.23-10.27 1.93-12.06Q2.64-13.85 3.74-15.67Q4.84-17.50 6.40-19.22Q7.95-20.94 9.99-22.44Q12.03-23.95 14.60-25.07Q17.17-26.19 20.29-26.84Q23.42-27.48 27.15-27.48L27.15-27.48Q28.42-27.48 29.67-27.28Q30.92-27.07 32.09-26.68L32.09-26.68Q32.77-27.21 33.52-27.69Q34.26-28.16 35.08-28.59L35.08-28.59ZM9.14 2.30L9.14 2.30Q11.25 2.30 12.89 1.46Q14.53 0.63 15.86-0.81Q17.19-2.25 18.29-4.19Q19.39-6.13 20.44-8.33Q21.48-10.53 22.55-12.90Q23.61-15.27 24.86-17.58Q26.11-19.88 27.64-22.01Q29.16-24.14 31.13-25.88L31.13-25.88Q29.34-26.41 27.36-26.41L27.36-26.41Q23.73-26.41 20.46-25.43Q17.19-24.45 14.38-22.79Q11.58-21.13 9.33-18.95Q7.07-16.76 5.48-14.35Q3.89-11.93 3.03-9.42Q2.17-6.91 2.17-4.63L2.17-4.63Q2.17-3.20 2.67-1.93Q3.16-0.66 4.08 0.27Q5 1.21 6.29 1.76Q7.58 2.30 9.14 2.30ZM30-11.76L30-11.76Q29.51-12.09 28.96-12.32Q28.42-12.56 28.01-12.56L28.01-12.56Q27.73-12.56 27.64-12.48Q27.54-12.40 27.54-12.30L27.54-12.30Q27.54-12.13 27.79-12.02Q28.05-11.91 28.43-11.85Q28.81-11.78 29.23-11.76Q29.65-11.74 30-11.76Z M43.81-4.45L43.81-4.45Q43.77-4.22 43.75-3.98Q43.73-3.75 43.73-3.52L43.73-3.52Q43.73-2.81 43.94-2.18Q44.14-1.54 44.54-1.06Q44.94-0.59 45.54-0.31Q46.13-0.04 46.89-0.04L46.89-0.04Q49.45-0.04 51.84-1.78Q54.22-3.52 56.58-7.29L56.58-7.29L57.25-6.70Q55.96-4.55 54.63-3.08Q53.30-1.60 51.98-0.68Q50.66 0.23 49.39 0.64Q48.13 1.05 46.97 1.05L46.97 1.05Q46.13 1.05 45.20 0.82Q44.26 0.59 43.47 0.04Q42.68-0.51 42.16-1.43Q41.64-2.34 41.64-3.71L41.64-3.71Q41.64-5.18 42.14-6.53Q42.64-7.89 43.44-9.06Q44.24-10.23 45.27-11.20Q46.31-12.17 47.37-12.85Q48.44-13.54 49.45-13.92Q50.47-14.30 51.25-14.30L51.25-14.30Q51.76-14.30 52.29-14.14Q52.81-13.98 53.23-13.65Q53.65-13.32 53.92-12.77Q54.18-12.23 54.18-11.46L54.18-11.46Q54.18-10.43 53.70-9.52Q53.22-8.61 52.42-7.84Q51.62-7.07 50.57-6.46Q49.51-5.84 48.36-5.41Q47.21-4.98 46.04-4.73Q44.86-4.47 43.81-4.45ZM43.96-5.29L43.96-5.29Q45.27-5.43 46.43-5.84Q47.58-6.25 48.54-6.85Q49.49-7.44 50.24-8.14Q51.00-8.85 51.50-9.57Q52.01-10.29 52.29-10.96Q52.56-11.62 52.56-12.15L52.56-12.15Q52.56-12.68 52.28-12.99Q51.99-13.30 51.60-13.30L51.60-13.30Q50.74-13.30 49.67-12.69Q48.59-12.07 47.52-10.99Q46.45-9.90 45.50-8.44Q44.55-6.97 43.96-5.29Z M71.48-13.26L72.11-12.99Q71.86-12.48 71.40-11.66Q70.94-10.84 70.41-9.85Q69.88-8.87 69.35-7.79Q68.81-6.72 68.37-5.69Q67.93-4.67 67.65-3.76Q67.36-2.85 67.36-2.23L67.36-2.23Q67.36-1.60 67.61-1.42Q67.85-1.23 68.24-1.23L68.24-1.23Q68.81-1.23 69.40-1.56Q70-1.89 70.58-2.42Q71.15-2.95 71.70-3.61Q72.25-4.28 72.72-4.95Q73.20-5.63 73.59-6.24Q73.98-6.86 74.26-7.29L74.26-7.29L74.96-6.74Q74.63-6.11 74.18-5.39Q73.73-4.67 73.19-3.94Q72.66-3.20 72.03-2.52Q71.41-1.84 70.71-1.31Q70.02-0.78 69.26-0.47Q68.50-0.16 67.70-0.16L67.70-0.16Q66.52-0.16 65.98-0.86Q65.43-1.56 65.43-2.68L65.43-2.68Q65.43-2.75 65.44-3.02Q65.45-3.28 65.49-3.44L65.49-3.44Q64.51-2.21 63.62-1.41Q62.73-0.61 61.90-0.14Q61.07 0.33 60.30 0.52Q59.53 0.70 58.83 0.70L58.83 0.70Q58.09 0.70 57.43 0.46Q56.78 0.21 56.28-0.25Q55.78-0.72 55.50-1.41Q55.21-2.09 55.21-2.99L55.21-2.99Q55.21-4.10 55.71-5.54Q56.21-6.97 57.48-8.63L57.48-8.63Q58.55-10.06 59.72-11.04Q60.88-12.01 62.00-12.61Q63.13-13.20 64.14-13.46Q65.16-13.71 65.96-13.71L65.96-13.71Q67.75-13.71 68.67-13.12Q69.59-12.52 69.79-11.29L69.79-11.29Q70.18-11.78 70.61-12.27Q71.04-12.75 71.48-13.26L71.48-13.26ZM66.11-5.57L66.11-5.57Q66.37-5.98 66.74-6.61Q67.11-7.25 67.52-7.92Q67.93-8.59 68.32-9.22Q68.71-9.84 69.00-10.27L69.00-10.27Q69.00-10.45 68.96-10.84Q68.91-11.23 68.69-11.63Q68.48-12.03 68.01-12.32Q67.54-12.62 66.70-12.62L66.70-12.62Q66.09-12.62 65.34-12.43Q64.59-12.25 63.74-11.81Q62.89-11.37 61.99-10.64Q61.09-9.92 60.20-8.85L60.20-8.85Q58.85-7.23 58.12-5.60Q57.38-3.96 57.38-2.66L57.38-2.66Q57.38-1.54 57.89-0.94Q58.40-0.33 59.34-0.33L59.34-0.33Q60.41-0.33 61.35-0.81Q62.29-1.29 63.11-2.05Q63.93-2.81 64.67-3.74Q65.41-4.67 66.11-5.57Z M95.20-26.21L96.04-25.66Q95.82-25.35 95.33-24.63Q94.84-23.91 94.20-22.91Q93.55-21.91 92.80-20.70Q92.05-19.49 91.30-18.20Q90.55-16.91 89.83-15.60Q89.12-14.28 88.57-13.07L88.57-13.07Q87.71-11.19 87.16-9.72Q86.60-8.24 86.28-7.09Q85.96-5.94 85.83-5.09Q85.70-4.24 85.70-3.63L85.70-3.63Q85.70-2.52 86.04-2.09Q86.39-1.66 86.97-1.66L86.97-1.66Q87.58-1.66 88.13-1.97Q88.69-2.29 89.21-2.77Q89.73-3.26 90.19-3.89Q90.64-4.51 91.04-5.14Q91.45-5.76 91.78-6.33Q92.11-6.89 92.36-7.29L92.36-7.29L93.07-6.74Q92.85-6.39 92.53-5.81Q92.21-5.23 91.80-4.55Q91.39-3.87 90.86-3.17Q90.33-2.48 89.70-1.91Q89.06-1.35 88.29-0.99Q87.52-0.63 86.62-0.63L86.62-0.63Q86.19-0.63 85.71-0.74Q85.23-0.86 84.82-1.15Q84.41-1.45 84.10-1.96Q83.79-2.48 83.69-3.28L83.69-3.28Q82.23-1.70 80.84-0.89Q79.45-0.08 78.22-0.08L78.22-0.08Q77.60-0.08 76.85-0.29Q76.09-0.51 75.43-1.04Q74.77-1.56 74.32-2.43Q73.87-3.30 73.87-4.59L73.87-4.59Q73.87-6.04 74.32-7.34Q74.77-8.65 75.53-9.78Q76.29-10.90 77.28-11.81Q78.26-12.71 79.34-13.35Q80.41-13.98 81.49-14.34Q82.58-14.69 83.54-14.69L83.54-14.69Q84.80-14.69 85.53-14.38Q86.25-14.06 86.62-13.75L86.62-13.75Q86.89-14.30 87.36-15.15Q87.83-16.00 88.46-17.04Q89.08-18.09 89.84-19.27Q90.61-20.45 91.46-21.65Q92.32-22.85 93.27-24.02Q94.22-25.20 95.20-26.21L95.20-26.21ZM83.67-4.75L83.67-4.75Q83.77-6.19 84.35-8.15Q84.92-10.12 86.11-12.68L86.11-12.68Q85.84-13.09 85.34-13.31Q84.84-13.54 84.22-13.54L84.22-13.54Q83.26-13.54 82.28-13.14Q81.29-12.75 80.38-12.09Q79.47-11.43 78.67-10.52Q77.87-9.61 77.28-8.57Q76.68-7.54 76.34-6.42Q76.00-5.29 76.00-4.20L76.00-4.20Q76.00-2.73 76.61-1.91Q77.23-1.09 78.26-1.09L78.26-1.09Q78.75-1.09 79.34-1.29Q79.92-1.48 80.62-1.92Q81.31-2.36 82.07-3.06Q82.83-3.75 83.67-4.75Z M104.63-16.11L108.05-16.11Q108.24-16.45 108.74-17.27Q109.24-18.09 109.91-19.08Q110.59-20.08 111.38-21.08Q112.17-22.09 112.93-22.79L112.93-22.79L113.81-22.27Q112.97-20.88 112.09-19.33Q111.21-17.77 110.35-16.11L110.35-16.11L116.72-16.11L116.33-15.10L109.82-15.10Q108.95-13.34 108.17-11.60Q107.40-9.86 106.82-8.28Q106.23-6.70 105.90-5.32Q105.57-3.95 105.57-2.93L105.57-2.93Q105.57-1.66 106.15-1.10Q106.74-0.55 107.60-0.55L107.60-0.55Q108.36-0.55 109.16-1.01Q109.96-1.46 110.73-2.17Q111.50-2.87 112.20-3.71Q112.89-4.55 113.43-5.29Q113.96-6.04 114.32-6.59Q114.67-7.15 114.75-7.29L114.75-7.29L115.47-6.74Q114.79-5.61 113.93-4.34Q113.07-3.07 112.02-1.98Q110.98-0.90 109.75-0.19Q108.52 0.53 107.09 0.53L107.09 0.53Q106.21 0.53 105.56 0.21Q104.90-0.10 104.45-0.65Q104.00-1.21 103.78-1.97Q103.55-2.73 103.55-3.63L103.55-3.63Q103.55-4.22 103.74-5.29Q103.93-6.37 104.38-7.84Q104.82-9.32 105.58-11.15Q106.33-12.99 107.48-15.10L107.48-15.10L104.24-15.10L104.63-16.11Z M125.76-5.31L125.76-5.31Q125.84-5.29 125.92-5.29Q126.00-5.29 126.09-5.29L126.09-5.29Q126.64-5.29 127.09-5.40Q127.54-5.51 127.92-5.74Q128.30-5.98 128.65-6.36Q129.00-6.74 129.34-7.29L129.34-7.29L130.04-6.74Q129.10-5.41 128.11-4.88Q127.11-4.36 126.00-4.36L126.00-4.36Q125.59-4.36 125.27-4.43L125.27-4.43Q124.43-3.03 123.48-2.04Q122.52-1.05 121.52-0.43Q120.53 0.20 119.55 0.48Q118.57 0.76 117.73 0.76L117.73 0.76Q116.88 0.76 116.14 0.46Q115.41 0.16 114.88-0.41Q114.36-0.98 114.06-1.76Q113.77-2.54 113.77-3.52L113.77-3.52Q113.77-4.49 114.08-5.51Q114.39-6.52 114.93-7.52Q115.47-8.52 116.19-9.44Q116.91-10.37 117.75-11.17Q118.59-11.97 119.49-12.62Q120.39-13.26 121.29-13.67L121.29-13.67L121.91-12.85Q120.88-12.11 119.81-10.98Q118.75-9.84 117.88-8.50Q117.01-7.15 116.46-5.69Q115.90-4.24 115.90-2.87L115.90-2.87Q115.90-1.64 116.45-0.97Q116.99-0.29 118.11-0.29L118.11-0.29Q118.96-0.29 119.80-0.64Q120.64-1.00 121.45-1.60Q122.25-2.21 122.99-3.04Q123.73-3.87 124.39-4.80L124.39-4.80Q123.83-5.14 123.40-5.69Q122.97-6.25 122.68-6.96Q122.38-7.68 122.24-8.50Q122.09-9.32 122.09-10.18L122.09-10.18Q122.09-11.04 122.30-11.80Q122.52-12.56 122.90-13.13Q123.28-13.71 123.79-14.04Q124.30-14.38 124.90-14.38L124.90-14.38Q125.45-14.38 125.88-14.09Q126.31-13.81 126.60-13.31Q126.89-12.81 127.05-12.13Q127.21-11.45 127.21-10.66L127.21-10.66Q127.21-10.08 127.11-9.38Q127.01-8.67 126.83-7.96Q126.64-7.25 126.38-6.55Q126.11-5.86 125.76-5.31ZM123.11-10.18L123.11-10.18Q123.11-9.61 123.20-8.95Q123.30-8.28 123.52-7.66Q123.73-7.03 124.06-6.49Q124.39-5.96 124.88-5.64L124.88-5.64Q125.23-6.33 125.48-7.04Q125.72-7.75 125.89-8.42Q126.05-9.08 126.12-9.66Q126.19-10.23 126.19-10.66L126.19-10.66Q126.19-11.25 126.09-11.74Q126.00-12.23 125.83-12.59Q125.66-12.95 125.42-13.15Q125.18-13.36 124.88-13.36L124.88-13.36Q124.49-13.36 124.16-13.10Q123.83-12.83 123.59-12.39Q123.36-11.95 123.23-11.38Q123.11-10.80 123.11-10.18Z M163.18 2.52L163.18 2.52Q161.91 2.52 160.62 2.29Q159.32 2.07 157.99 1.71Q156.66 1.35 155.33 0.92Q154.00 0.49 152.71 0.08L152.71 0.08Q151.17 1.02 149.49 1.55Q147.81 2.09 145.96 2.09L145.96 2.09Q144.38 2.09 143.54 1.52Q142.70 0.96 142.70 0.02L142.70 0.02Q142.70-1.21 144.06-1.88Q145.43-2.54 148.20-2.54L148.20-2.54Q149.41-2.54 150.64-2.36Q151.88-2.19 153.14-1.91L153.14-1.91Q154.38-2.99 155.49-4.34Q156.60-5.68 157.66-7.23L157.66-7.23Q156.86-7.13 156.04-7.08Q155.21-7.03 154.38-7.03L154.38-7.03Q151.31-7.03 148.91-7.76Q146.50-8.50 144.84-9.78Q143.18-11.05 142.31-12.78Q141.45-14.51 141.45-16.50L141.45-16.50Q141.45-18.85 142.34-20.66Q143.24-22.48 144.81-23.72Q146.39-24.96 148.52-25.62Q150.64-26.27 153.09-26.27L153.09-26.27Q154.63-26.27 155.90-26.04Q157.17-25.80 158.10-25.53Q159.02-25.25 159.55-25Q160.08-24.75 160.14-24.73L160.14-24.73L159.63-23.85Q159.61-23.85 159.14-24.07Q158.67-24.30 157.85-24.55Q157.03-24.80 155.90-25.02Q154.77-25.23 153.46-25.23L153.46-25.23Q151.15-25.23 149.33-24.56Q147.50-23.89 146.24-22.71Q144.98-21.54 144.31-19.97Q143.63-18.40 143.63-16.62L143.63-16.62Q143.63-14.63 144.55-13.06Q145.47-11.48 147.01-10.40Q148.55-9.32 150.60-8.75Q152.64-8.18 154.88-8.18L154.88-8.18Q155.80-8.18 156.69-8.24Q157.58-8.30 158.46-8.44L158.46-8.44Q159.84-10.61 161.14-12.93Q162.44-15.25 163.73-17.48Q165.02-19.71 166.33-21.71Q167.64-23.71 169.05-25.21Q170.47-26.72 172.03-27.61Q173.59-28.50 175.39-28.50L175.39-28.50Q176.09-28.50 176.70-28.27Q177.30-28.05 177.75-27.59Q178.20-27.13 178.46-26.43Q178.71-25.72 178.71-24.79L178.71-24.79Q178.71-23.26 178.13-21.57Q177.54-19.88 176.43-18.19Q175.31-16.50 173.71-14.87Q172.11-13.24 170.08-11.86Q168.05-10.47 165.63-9.38Q163.20-8.30 160.47-7.70L160.47-7.70Q159.18-5.92 157.81-4.35Q156.45-2.77 154.92-1.50L154.92-1.50Q156.41-1.11 157.83-0.67Q159.26-0.23 160.54 0.13Q161.82 0.49 162.91 0.73Q164.00 0.98 164.84 0.98L164.84 0.98Q166.09 0.98 167.26 0.55Q168.42 0.12 169.57-0.98L169.57-0.98L170.37-0.35Q170.35-0.33 170.16-0.11Q169.96 0.12 169.57 0.44Q169.18 0.76 168.59 1.12Q168.01 1.48 167.22 1.80Q166.43 2.11 165.42 2.31Q164.41 2.52 163.18 2.52ZM175.47-27.42L175.47-27.42Q174.38-27.42 173.30-26.64Q172.23-25.86 171.13-24.52Q170.04-23.18 168.92-21.38Q167.79-19.57 166.60-17.53Q165.41-15.49 164.12-13.32Q162.83-11.15 161.43-9.06L161.43-9.06Q163.77-9.71 165.89-10.74Q168.01-11.78 169.81-13.07Q171.62-14.36 173.08-15.83Q174.53-17.30 175.56-18.85Q176.58-20.39 177.13-21.90Q177.68-23.42 177.68-24.80L177.68-24.80Q177.68-25.53 177.50-26.03Q177.32-26.52 177.02-26.84Q176.72-27.15 176.32-27.29Q175.92-27.42 175.47-27.42ZM145.84 1.07L145.84 1.07Q147.29 1.07 148.57 0.67Q149.86 0.27 151.07-0.43L151.07-0.43Q149.79-0.80 148.58-1.04Q147.38-1.27 146.27-1.27L146.27-1.27Q144.94-1.27 144.33-0.88Q143.71-0.49 143.71 0.02L143.71 0.02Q143.71 0.18 143.80 0.36Q143.89 0.55 144.12 0.70Q144.36 0.86 144.77 0.97Q145.18 1.07 145.84 1.07Z M174.92-4.45L174.92-4.45Q174.88-4.22 174.86-3.98Q174.84-3.75 174.84-3.52L174.84-3.52Q174.84-2.81 175.05-2.18Q175.25-1.54 175.65-1.06Q176.05-0.59 176.65-0.31Q177.25-0.04 178.01-0.04L178.01-0.04Q180.57-0.04 182.95-1.78Q185.33-3.52 187.70-7.29L187.70-7.29L188.36-6.70Q187.07-4.55 185.74-3.08Q184.41-1.60 183.10-0.68Q181.78 0.23 180.51 0.64Q179.24 1.05 178.09 1.05L178.09 1.05Q177.25 1.05 176.31 0.82Q175.37 0.59 174.58 0.04Q173.79-0.51 173.27-1.43Q172.75-2.34 172.75-3.71L172.75-3.71Q172.75-5.18 173.25-6.53Q173.75-7.89 174.55-9.06Q175.35-10.23 176.39-11.20Q177.42-12.17 178.49-12.85Q179.55-13.54 180.57-13.92Q181.58-14.30 182.36-14.30L182.36-14.30Q182.87-14.30 183.40-14.14Q183.93-13.98 184.35-13.65Q184.77-13.32 185.03-12.77Q185.29-12.23 185.29-11.46L185.29-11.46Q185.29-10.43 184.81-9.52Q184.34-8.61 183.54-7.84Q182.73-7.07 181.68-6.46Q180.63-5.84 179.47-5.41Q178.32-4.98 177.15-4.73Q175.98-4.47 174.92-4.45ZM175.08-5.29L175.08-5.29Q176.39-5.43 177.54-5.84Q178.69-6.25 179.65-6.85Q180.61-7.44 181.36-8.14Q182.11-8.85 182.62-9.57Q183.13-10.29 183.40-10.96Q183.67-11.62 183.67-12.15L183.67-12.15Q183.67-12.68 183.39-12.99Q183.11-13.30 182.71-13.30L182.71-13.30Q181.86-13.30 180.78-12.69Q179.71-12.07 178.63-10.99Q177.56-9.90 176.61-8.44Q175.66-6.97 175.08-5.29Z M202.60-13.26L203.22-12.99Q202.97-12.48 202.51-11.66Q202.05-10.84 201.52-9.85Q201.00-8.87 200.46-7.79Q199.92-6.72 199.48-5.69Q199.04-4.67 198.76-3.76Q198.48-2.85 198.48-2.23L198.48-2.23Q198.48-1.60 198.72-1.42Q198.96-1.23 199.36-1.23L199.36-1.23Q199.92-1.23 200.52-1.56Q201.11-1.89 201.69-2.42Q202.27-2.95 202.81-3.61Q203.36-4.28 203.84-4.95Q204.32-5.63 204.71-6.24Q205.10-6.86 205.37-7.29L205.37-7.29L206.07-6.74Q205.74-6.11 205.29-5.39Q204.84-4.67 204.31-3.94Q203.77-3.20 203.14-2.52Q202.52-1.84 201.83-1.31Q201.13-0.78 200.37-0.47Q199.61-0.16 198.81-0.16L198.81-0.16Q197.64-0.16 197.09-0.86Q196.54-1.56 196.54-2.68L196.54-2.68Q196.54-2.75 196.55-3.02Q196.56-3.28 196.60-3.44L196.60-3.44Q195.63-2.21 194.74-1.41Q193.85-0.61 193.02-0.14Q192.19 0.33 191.42 0.52Q190.64 0.70 189.94 0.70L189.94 0.70Q189.20 0.70 188.54 0.46Q187.89 0.21 187.39-0.25Q186.89-0.72 186.61-1.41Q186.33-2.09 186.33-2.99L186.33-2.99Q186.33-4.10 186.83-5.54Q187.32-6.97 188.59-8.63L188.59-8.63Q189.67-10.06 190.83-11.04Q191.99-12.01 193.12-12.61Q194.24-13.20 195.25-13.46Q196.27-13.71 197.07-13.71L197.07-13.71Q198.87-13.71 199.79-13.12Q200.70-12.52 200.90-11.29L200.90-11.29Q201.29-11.78 201.72-12.27Q202.15-12.75 202.60-13.26L202.60-13.26ZM197.23-5.57L197.23-5.57Q197.48-5.98 197.85-6.61Q198.22-7.25 198.63-7.92Q199.04-8.59 199.43-9.22Q199.82-9.84 200.12-10.27L200.12-10.27Q200.12-10.45 200.07-10.84Q200.02-11.23 199.80-11.63Q199.59-12.03 199.12-12.32Q198.65-12.62 197.81-12.62L197.81-12.62Q197.21-12.62 196.46-12.43Q195.70-12.25 194.85-11.81Q194.00-11.37 193.11-10.64Q192.21-9.92 191.31-8.85L191.31-8.85Q189.96-7.23 189.23-5.60Q188.50-3.96 188.50-2.66L188.50-2.66Q188.50-1.54 189.00-0.94Q189.51-0.33 190.45-0.33L190.45-0.33Q191.52-0.33 192.46-0.81Q193.40-1.29 194.22-2.05Q195.04-2.81 195.78-3.74Q196.52-4.67 197.23-5.57Z M216.97-7.29L217.70-6.74Q217.40-6.31 217.00-5.58Q216.60-4.84 216.07-3.99Q215.55-3.14 214.91-2.27Q214.28-1.39 213.53-0.68Q212.77 0.02 211.89 0.47Q211.02 0.92 210.02 0.92L210.02 0.92Q209.47 0.92 208.98 0.75Q208.50 0.59 208.13 0.23Q207.75-0.12 207.54-0.63Q207.32-1.15 207.32-1.86L207.32-1.86Q207.32-2.81 207.71-3.86Q208.09-4.90 208.59-5.88Q209.10-6.86 209.61-7.67Q210.12-8.48 210.35-8.96L210.35-8.96Q210.59-9.45 210.59-9.80L210.59-9.80Q210.59-10.06 210.42-10.25Q210.25-10.45 210.01-10.63Q209.77-10.82 209.50-11.03Q209.24-11.23 209.06-11.52L209.06-11.52Q208.57-10.74 208.07-9.94L208.07-9.94Q207.62-9.26 207.09-8.41Q206.56-7.56 206.07-6.74L206.07-6.74L205.37-7.29L209.55-13.83L210.12-13.54Q210.08-13.42 209.99-13.16Q209.90-12.91 209.90-12.62L209.90-12.62Q209.90-12.40 209.97-12.20Q210.04-11.99 210.25-11.82L210.25-11.82Q211.04-11.11 211.48-10.73Q211.93-10.35 212.14-10.13Q212.34-9.90 212.39-9.76Q212.44-9.61 212.44-9.38L212.44-9.38Q212.44-9.14 212.36-8.81Q212.29-8.48 212.10-8.01Q211.91-7.54 211.59-6.90Q211.27-6.27 210.78-5.43L210.78-5.43Q210.49-4.92 210.21-4.40Q209.92-3.89 209.70-3.36Q209.47-2.83 209.34-2.30Q209.20-1.78 209.20-1.29L209.20-1.29Q209.20-0.92 209.31-0.69Q209.41-0.47 209.59-0.35Q209.77-0.23 209.97-0.20Q210.18-0.16 210.37-0.16L210.37-0.16Q211.02-0.16 211.65-0.54Q212.29-0.92 212.90-1.52Q213.52-2.13 214.09-2.90Q214.67-3.67 215.20-4.47Q215.72-5.27 216.17-6.01Q216.62-6.74 216.97-7.29L216.97-7.29Z M233.28-10.14L233.28-10.14Q233.28-9.30 232.99-8.43Q232.70-7.56 232.25-6.69Q231.80-5.82 231.29-4.98Q230.78-4.14 230.33-3.36Q229.88-2.58 229.59-1.87Q229.30-1.15 229.30-0.57L229.30-0.57Q229.30-0.12 229.49 0.04Q229.69 0.20 229.92 0.20L229.92 0.20Q230.66 0.20 231.58-0.54Q232.50-1.27 233.45-2.38Q234.39-3.50 235.33-4.80Q236.27-6.11 237.03-7.29L237.03-7.29L237.73-6.74Q237.58-6.50 237.17-5.81Q236.76-5.12 236.15-4.23Q235.55-3.34 234.79-2.37Q234.04-1.41 233.18-0.60Q232.32 0.21 231.42 0.74Q230.51 1.27 229.59 1.27L229.59 1.27Q229.06 1.27 228.63 1.09Q228.20 0.92 227.90 0.61Q227.60 0.29 227.42-0.13Q227.25-0.55 227.25-1.02L227.25-1.02Q227.25-1.78 227.59-2.67Q227.93-3.55 228.44-4.49Q228.95-5.43 229.55-6.38Q230.16-7.32 230.66-8.18Q231.17-9.04 231.51-9.78Q231.86-10.51 231.86-11.04L231.86-11.04Q231.86-11.64 231.53-12.05Q231.21-12.46 230.63-12.46L230.63-12.46Q230-12.46 229.18-11.94Q228.36-11.43 227.34-10.43Q226.33-9.43 225.13-7.98Q223.93-6.52 222.52-4.67L222.52-4.67Q221.72-3.59 220.96-2.60L220.96-2.60Q220.63-2.17 220.29-1.72Q219.96-1.27 219.63-0.83Q219.30-0.39 219.00 0.01Q218.71 0.41 218.48 0.70L218.48 0.70L216.76 0L219.04-3.14Q219.53-3.81 220.04-4.57Q220.55-5.33 221.04-6.14Q221.54-6.95 221.99-7.77Q222.44-8.59 222.83-9.38L222.83-9.38Q223.40-10.55 223.61-11.32Q223.83-12.09 223.83-12.56L223.83-12.56Q223.83-13.09 223.63-13.25Q223.44-13.42 223.09-13.42L223.09-13.42Q222.71-13.42 222.24-13.04Q221.76-12.66 221.25-12.06Q220.74-11.46 220.22-10.71Q219.71-9.96 219.24-9.22Q218.77-8.48 218.36-7.81Q217.95-7.15 217.68-6.74L217.68-6.74L216.97-7.29Q217.97-8.85 218.78-10.15Q219.59-11.45 220.34-12.38Q221.09-13.32 221.81-13.84Q222.52-14.36 223.32-14.36L223.32-14.36Q223.75-14.36 224.15-14.18Q224.55-14.00 224.85-13.66Q225.16-13.32 225.33-12.83Q225.51-12.34 225.51-11.70L225.51-11.70Q225.51-11.19 225.39-10.64L225.39-10.64Q226.25-11.48 226.99-12.03Q227.73-12.58 228.36-12.90Q228.98-13.22 229.51-13.36Q230.04-13.50 230.47-13.50L230.47-13.50Q230.84-13.50 231.33-13.36Q231.82-13.22 232.25-12.85Q232.68-12.48 232.98-11.83Q233.28-11.17 233.28-10.14Z"/></g>
</svg>
</g><g opacity="1" transform="rotate(0 551.2201 433.7341)">
<svg width="362.6571" height="80" x="551.2201" y="433.7341" version="1.1" preserveAspectRatio="none" viewBox="0.6 -31.56 182.96 40.36">
  <g transform="matrix(1 0 0 1 0 0)" class="companyName"><path id="id-D6z1nYkh10" d="M21.12-29.44L28.28-29.44L17.24-9.16L17.24 0L11.44 0L11.44-9.16L0.60-29.44L7.76-29.44L14.52-15.84L21.12-29.44Z M24.00-8.96Q24.00-11.64 25.26-13.76Q26.52-15.88 28.82-17.10Q31.12-18.32 34.04-18.32L34.04-18.32Q36.96-18.32 39.18-17.10Q41.40-15.88 42.60-13.76Q43.80-11.64 43.80-8.96L43.80-8.96Q43.80-6.28 42.60-4.12Q41.40-1.96 39.18-0.74Q36.96 0.48 33.96 0.48L33.96 0.48Q31.04 0.48 28.78-0.66Q26.52-1.80 25.26-3.92Q24.00-6.04 24.00-8.96L24.00-8.96ZM29.64-8.92Q29.64-6.84 30.84-5.46Q32.04-4.08 33.88-4.08L33.88-4.08Q35.80-4.08 36.98-5.44Q38.16-6.80 38.16-8.92L38.16-8.92Q38.16-11.04 36.98-12.40Q35.80-13.76 33.88-13.76L33.88-13.76Q32.04-13.76 30.84-12.38Q29.64-11 29.64-8.92L29.64-8.92Z M58.20-17.48L63.80-17.48L63.80 0L58.72 0L58.32-2.80Q57.40-1.12 55.74-0.14Q54.08 0.84 51.84 0.84L51.84 0.84Q49.44 0.84 47.84-0.64Q46.24-2.12 46.20-4.40L46.20-4.40L46.20-17.48L51.80-17.48L51.80-6.48Q51.92-3.92 54.16-3.92L54.16-3.92Q56.00-3.92 57.10-5.72Q58.20-7.52 58.20-10.36L58.20-10.36L58.20-17.48Z M73.04-13.48Q73.76-14.88 75.02-16Q76.28-17.12 77.60-17.74Q78.92-18.36 79.68-18.36L79.68-18.36L79.40-12.76Q79.16-12.80 78.72-12.80L78.72-12.80Q77.04-12.80 75.76-11.92Q74.48-11.04 73.80-9.66Q73.12-8.28 73.12-6.84L73.12-6.84L73.12 0L67.56 0L67.56-17.48L72.60-17.48L73.04-13.48Z M109.04-15.52Q111.36-14.44 112.66-12.70Q113.96-10.96 113.96-8.68L113.96-8.68Q113.96-4.20 111.02-2.10Q108.08 0 103.68 0L103.68 0L93.88 0L93.88-29.44L102.52-29.44Q107.20-29.44 109.88-27.54Q112.56-25.64 112.56-22.04L112.56-22.04Q112.56-19.84 111.64-18.18Q110.72-16.52 109.04-15.52L109.04-15.52ZM99.68-23.84L99.68-17.40L103.20-17.40Q104.80-17.40 105.68-18.38Q106.56-19.36 106.56-20.80L106.56-20.80Q106.56-22.28 105.56-23.06Q104.56-23.84 102.80-23.84L102.80-23.84L99.68-23.84ZM103.40-5.40Q105.44-5.40 106.70-6.22Q107.96-7.04 107.96-8.68L107.96-8.68Q107.96-11.80 103.00-11.80L103.00-11.80L99.68-11.80L99.68-5.40L103.40-5.40Z M116.84-31.56L122.44-31.56L122.44 0L116.84 0L116.84-31.56Z M124.84-8.96Q124.84-11.64 126.10-13.76Q127.36-15.88 129.66-17.10Q131.96-18.32 134.88-18.32L134.88-18.32Q137.80-18.32 140.02-17.10Q142.24-15.88 143.44-13.76Q144.64-11.64 144.64-8.96L144.64-8.96Q144.64-6.28 143.44-4.12Q142.24-1.96 140.02-0.74Q137.80 0.48 134.80 0.48L134.80 0.48Q131.88 0.48 129.62-0.66Q127.36-1.80 126.10-3.92Q124.84-6.04 124.84-8.96L124.84-8.96ZM130.48-8.92Q130.48-6.84 131.68-5.46Q132.88-4.08 134.72-4.08L134.72-4.08Q136.64-4.08 137.82-5.44Q139.00-6.80 139.00-8.92L139.00-8.92Q139.00-11.04 137.82-12.40Q136.64-13.76 134.72-13.76L134.72-13.76Q132.88-13.76 131.68-12.38Q130.48-11 130.48-8.92L130.48-8.92Z M161.44-17.48L166.60-17.48L166.60 0Q166.60 2.48 165.18 4.50Q163.76 6.52 161.34 7.66Q158.92 8.80 156.08 8.80L156.08 8.80Q153.92 8.80 152.30 8.28Q150.68 7.76 149.70 7.12Q148.72 6.48 147.36 5.36L147.36 5.36L150.64 1.52Q151.84 2.64 153.02 3.28Q154.20 3.92 156.00 3.92L156.00 3.92Q158.12 3.92 159.56 2.86Q161.00 1.80 161.00-0.08L161.00-0.08L161.00-2.56Q160.20-1.20 158.54-0.36Q156.88 0.48 154.48 0.48L154.48 0.48Q152.12 0.48 150.10-0.74Q148.08-1.96 146.88-4.10Q145.68-6.24 145.68-8.84L145.68-8.84Q145.68-11.48 146.94-13.68Q148.20-15.88 150.26-17.12Q152.32-18.36 154.60-18.36L154.60-18.36Q156.76-18.36 158.44-17.74Q160.12-17.12 161.00-16.12L161.00-16.12L161.44-17.48ZM156.16-4.08Q159.52-4.08 161.00-6.72L161.00-6.72L161.00-11Q160.44-12.28 159.14-13.04Q157.84-13.80 156.16-13.80L156.16-13.80Q154.12-13.80 152.72-12.44Q151.32-11.08 151.32-9L151.32-9Q151.32-6.92 152.72-5.50Q154.12-4.08 156.16-4.08L156.16-4.08Z M176.04 0.36Q173.88 0.36 172.00-0.40Q170.12-1.16 168.88-2.52L168.88-2.52L171.20-5.60Q173.52-3.44 175.56-3.44L175.56-3.44Q176.64-3.44 177.30-3.78Q177.96-4.12 177.96-4.80L177.96-4.80Q177.96-5.60 177.20-6.02Q176.44-6.44 175.50-6.72Q174.56-7 174.24-7.08L174.24-7.08Q171.96-7.80 170.84-9.22Q169.72-10.64 169.72-12.48L169.72-12.48Q169.72-13.88 170.46-15.22Q171.20-16.56 172.76-17.42Q174.32-18.28 176.64-18.28L176.64-18.28Q178.80-18.28 180.32-17.84Q181.84-17.40 183.24-16.40L183.24-16.40L181.12-13.12Q180.32-13.76 179.34-14.18Q178.36-14.60 177.56-14.60L177.56-14.60Q176.60-14.60 176.00-14.20Q175.40-13.80 175.40-13.24L175.40-13.24Q175.36-12.40 176.10-11.98Q176.84-11.56 178.40-11.12L178.40-11.12Q178.64-11.04 178.90-10.96Q179.16-10.88 179.44-10.80L179.44-10.80Q183.56-9.44 183.56-5.84L183.56-5.84Q183.56-4.16 182.72-2.76Q181.88-1.36 180.18-0.50Q178.48 0.36 176.04 0.36L176.04 0.36Z"/></g>
</svg>
</g></svg></svg>