<svg version="1.1" preserveAspectRatio="none" xmlns="http://www.w3.org/2000/svg" width="100" height="100" viewBox="0 0 500 500"><rect width="100%" height="100%" fill="#0E0E0E" fill-opacity="1"/><svg viewBox="121.9262 180.5255 244.4763 134.7906" width="333" height="183.59763216311768" x="83.5px" y="158.2012px" xmlns="http://www.w3.org/2000/svg" xmlns:xlink="http://www.w3.org/1999/xlink" preserveAspectRatio="none"><defs></defs><style>.background {fill:#0E0E0E;fill-opacity:1;}.companyName {fill:#EBE7D9;fill-opacity:1;}.icon3 {fill:#DFDFDF;fill-opacity:1;}.icon3-str {stroke:#DFDFDF;stroke-opacity:1;}.shapeStroke-str {stroke:#EBE7D9;stroke-opacity:1;}</style><g opacity="1" transform="rotate(0 121.9262 181.5255)">
<svg width="244.4763" height="98" x="121.9262" y="181.5255" version="1.1" preserveAspectRatio="none" viewBox="0 0 244.4763 98">
  <defs><rect x="0" y="0" width="244.4763" height="98" rx="0px" ry="0px" id="id-MGa_3CcrI1679988956867"></rect></defs><use class="icon3 shapeStroke-str" style="stroke-width:0;" xlink:href="#id-MGa_3CcrI1679988956867"></use>
</svg>
</g><g opacity="1" transform="rotate(0 121.9262 180.5255)">
<svg width="244.4763" height="100" x="121.9262" y="180.5255" version="1.1" preserveAspectRatio="none" viewBox="2.8 -28.56 141.6 57.92">
  <g transform="matrix(1 0 0 1 0 0)" class="background"><path id="id-D6z1nYkh9" d="M32.12-28L21.40-10.04L21.40 0L13.48 0L13.48-10.16L2.80-28L11.16-28L17.80-16.88L24.44-28L32.12-28Z M47.04 0.56Q42.60 0.56 39.06-1.32Q35.52-3.20 33.50-6.52Q31.48-9.84 31.48-14L31.48-14Q31.48-18.16 33.50-21.48Q35.52-24.80 39.06-26.68Q42.60-28.56 47.04-28.56L47.04-28.56Q51.48-28.56 55.02-26.68Q58.56-24.80 60.58-21.48Q62.60-18.16 62.60-14L62.60-14Q62.60-9.84 60.58-6.52Q58.56-3.20 55.02-1.32Q51.48 0.56 47.04 0.56L47.04 0.56ZM47.04-6Q49.16-6 50.88-7Q52.60-8 53.60-9.82Q54.60-11.64 54.60-14L54.60-14Q54.60-16.36 53.60-18.18Q52.60-20 50.88-21Q49.16-22 47.04-22L47.04-22Q44.92-22 43.20-21Q41.48-20 40.48-18.18Q39.48-16.36 39.48-14L39.48-14Q39.48-11.64 40.48-9.82Q41.48-8 43.20-7Q44.92-6 47.04-6L47.04-6Z M79.68 0.56Q73.44 0.56 69.98-2.84Q66.52-6.24 66.52-12.48L66.52-12.48L66.52-28L74.44-28L74.44-12.72Q74.44-6 79.76-6L79.76-6Q85.04-6 85.04-12.72L85.04-12.72L85.04-28L92.84-28L92.84-12.48Q92.84-6.24 89.38-2.84Q85.92 0.56 79.68 0.56L79.68 0.56Z M115.52 0L110.44-7.44L106.12-7.44L106.12 0L98.20 0L98.20-28L111.00-28Q114.80-28 117.60-26.74Q120.40-25.48 121.92-23.14Q123.44-20.80 123.44-17.64L123.44-17.64Q123.44-14.60 122.02-12.34Q120.60-10.08 117.96-8.80L117.96-8.80L124 0L115.52 0ZM115.44-17.64Q115.44-19.60 114.20-20.68Q112.96-21.76 110.52-21.76L110.52-21.76L106.12-21.76L106.12-13.56L110.52-13.56Q112.96-13.56 114.20-14.62Q115.44-15.68 115.44-17.64L115.44-17.64Z M24.32 14.20Q26.72 15.04 28.08 16.82Q29.44 18.60 29.44 21.12L29.44 21.12Q29.44 24.80 26.48 26.80Q23.52 28.80 17.92 28.80L17.92 28.80L2.80 28.80L2.80 0.80L17.12 0.80Q22.48 0.80 25.28 2.78Q28.08 4.76 28.08 8.12L28.08 8.12Q28.08 10.12 27.10 11.70Q26.12 13.28 24.32 14.20L24.32 14.20ZM16.08 6.52L10.64 6.52L10.64 11.92L16.08 11.92Q20.08 11.92 20.08 9.20L20.08 9.20Q20.08 6.52 16.08 6.52L16.08 6.52ZM17.28 23.08Q21.44 23.08 21.44 20.24L21.44 20.24Q21.44 17.40 17.28 17.40L17.28 17.40L10.64 17.40L10.64 23.08L17.28 23.08Z M33.56 28.80L33.56 0.80L41.48 0.80L41.48 22.52L54.84 22.52L54.84 28.80L33.56 28.80Z M71.64 29.36Q67.20 29.36 63.66 27.48Q60.12 25.60 58.10 22.28Q56.08 18.96 56.08 14.80L56.08 14.80Q56.08 10.64 58.10 7.32Q60.12 4.00 63.66 2.12Q67.20 0.24 71.64 0.24L71.64 0.24Q76.08 0.24 79.62 2.12Q83.16 4.00 85.18 7.32Q87.20 10.64 87.20 14.80L87.20 14.80Q87.20 18.96 85.18 22.28Q83.16 25.60 79.62 27.48Q76.08 29.36 71.64 29.36L71.64 29.36ZM71.64 22.80Q73.76 22.80 75.48 21.80Q77.20 20.80 78.20 18.98Q79.20 17.16 79.20 14.80L79.20 14.80Q79.20 12.44 78.20 10.62Q77.20 8.80 75.48 7.80Q73.76 6.80 71.64 6.80L71.64 6.80Q69.52 6.80 67.80 7.80Q66.08 8.80 65.08 10.62Q64.08 12.44 64.08 14.80L64.08 14.80Q64.08 17.16 65.08 18.98Q66.08 20.80 67.80 21.80Q69.52 22.80 71.64 22.80L71.64 22.80Z M110.12 21.88L110.12 14.20L117.12 14.20L117.12 25.80Q114.72 27.52 111.60 28.44Q108.48 29.36 105.36 29.36L105.36 29.36Q100.96 29.36 97.44 27.50Q93.92 25.64 91.92 22.32Q89.92 19.00 89.92 14.80L89.92 14.80Q89.92 10.60 91.92 7.28Q93.92 3.96 97.48 2.10Q101.04 0.24 105.52 0.24L105.52 0.24Q109.44 0.24 112.56 1.56Q115.68 2.88 117.76 5.36L117.76 5.36L112.72 9.92Q109.88 6.80 105.92 6.80L105.92 6.80Q102.32 6.80 100.12 8.98Q97.92 11.16 97.92 14.80L97.92 14.80Q97.92 17.12 98.92 18.94Q99.92 20.76 101.72 21.78Q103.52 22.80 105.84 22.80L105.84 22.80Q108.12 22.80 110.12 21.88L110.12 21.88Z M132 29.36Q128.60 29.36 125.40 28.52Q122.20 27.68 120.20 26.28L120.20 26.28L122.80 20.44Q124.68 21.68 127.16 22.44Q129.64 23.20 132.04 23.20L132.04 23.20Q136.60 23.20 136.60 20.92L136.60 20.92Q136.60 19.72 135.30 19.14Q134 18.56 131.12 17.92L131.12 17.92Q127.96 17.24 125.84 16.46Q123.72 15.68 122.20 13.96Q120.68 12.24 120.68 9.32L120.68 9.32Q120.68 6.76 122.08 4.70Q123.48 2.64 126.26 1.44Q129.04 0.24 133.08 0.24L133.08 0.24Q135.84 0.24 138.52 0.86Q141.20 1.48 143.24 2.68L143.24 2.68L140.80 8.56Q136.80 6.40 133.04 6.40L133.04 6.40Q130.68 6.40 129.60 7.10Q128.52 7.80 128.52 8.92L128.52 8.92Q128.52 10.04 129.80 10.60Q131.08 11.16 133.92 11.76L133.92 11.76Q137.12 12.44 139.22 13.22Q141.32 14.00 142.86 15.70Q144.40 17.40 144.40 20.32L144.40 20.32Q144.40 22.84 143 24.88Q141.60 26.92 138.80 28.14Q136 29.36 132 29.36L132 29.36Z"/></g>
</svg>
</g><g opacity="1" transform="rotate(0 121.9262 300.5255)">
<svg width="244.4763" height="14.7906" x="121.9262" y="300.5255" version="1.1" preserveAspectRatio="none" viewBox="4.2 -28.32 473.4 28.64">
  <g transform="matrix(1 0 0 1 0 0)" class="companyName"><path id="id-6izo4zJp13" d="M27.28 0L22.92 0L16.88-8.60Q15.76-8.52 15.12-8.52L15.12-8.52L8.20-8.52L8.20 0L4.20 0L4.20-28L15.12-28Q20.56-28 23.68-25.40Q26.80-22.80 26.80-18.24L26.80-18.24Q26.80-15 25.20-12.72Q23.60-10.44 20.64-9.40L20.64-9.40L27.28 0ZM15-11.92Q18.80-11.92 20.80-13.56Q22.80-15.20 22.80-18.24L22.80-18.24Q22.80-21.28 20.80-22.90Q18.80-24.52 15-24.52L15-24.52L8.20-24.52L8.20-11.92L15-11.92Z M49.28-3.48L65.60-3.48L65.60 0L45.28 0L45.28-28L65.04-28L65.04-24.52L49.28-24.52L49.28-15.92L63.32-15.92L63.32-12.52L49.28-12.52L49.28-3.48Z M105 0L101.92-7L87.04-7L83.96 0L79.84 0L92.52-28L96.48-28L109.20 0L105 0ZM88.44-10.20L100.52-10.20L94.48-23.92L88.44-10.20Z M125.36 0L125.36-28L137.16-28Q141.60-28 145.04-26.24Q148.48-24.48 150.38-21.30Q152.28-18.12 152.28-14L152.28-14Q152.28-9.88 150.38-6.70Q148.48-3.52 145.04-1.76Q141.60 0 137.16 0L137.16 0L125.36 0ZM129.36-3.48L136.92-3.48Q140.32-3.48 142.90-4.80Q145.48-6.12 146.88-8.50Q148.28-10.88 148.28-14L148.28-14Q148.28-17.12 146.88-19.50Q145.48-21.88 142.90-23.20Q140.32-24.52 136.92-24.52L136.92-24.52L129.36-24.52L129.36-3.48Z M198.72 0L198.72-24.52L189.12-24.52L189.12-28L212.28-28L212.28-24.52L202.68-24.52L202.68 0L198.72 0Z M240.88 0.32Q236.64 0.32 233.24-1.54Q229.84-3.40 227.90-6.68Q225.96-9.96 225.96-14L225.96-14Q225.96-18.04 227.90-21.32Q229.84-24.60 233.24-26.46Q236.64-28.32 240.88-28.32L240.88-28.32Q245.08-28.32 248.48-26.46Q251.88-24.60 253.80-21.34Q255.72-18.08 255.72-14L255.72-14Q255.72-9.92 253.80-6.66Q251.88-3.40 248.48-1.54Q245.08 0.32 240.88 0.32L240.88 0.32ZM240.88-3.24Q243.96-3.24 246.42-4.64Q248.88-6.04 250.30-8.50Q251.72-10.96 251.72-14L251.72-14Q251.72-17.04 250.30-19.50Q248.88-21.96 246.42-23.36Q243.96-24.76 240.88-24.76L240.88-24.76Q237.80-24.76 235.30-23.36Q232.80-21.96 231.38-19.50Q229.96-17.04 229.96-14L229.96-14Q229.96-10.96 231.38-8.50Q232.80-6.04 235.30-4.64Q237.80-3.24 240.88-3.24L240.88-3.24Z M296.60 0L296.60-28L300.60-28L300.60-3.48L315.76-3.48L315.76 0L296.60 0Z M336.36-3.48L352.68-3.48L352.68 0L332.36 0L332.36-28L352.12-28L352.12-24.52L336.36-24.52L336.36-15.92L350.40-15.92L350.40-12.52L336.36-12.52L336.36-3.48Z M392.08 0L389-7L374.12-7L371.04 0L366.92 0L379.60-28L383.56-28L396.28 0L392.08 0ZM375.52-10.20L387.60-10.20L381.56-23.92L375.52-10.20Z M435.52 0L431.16 0L425.12-8.60Q424-8.52 423.36-8.52L423.36-8.52L416.44-8.52L416.44 0L412.44 0L412.44-28L423.36-28Q428.80-28 431.92-25.40Q435.04-22.80 435.04-18.24L435.04-18.24Q435.04-15 433.44-12.72Q431.84-10.44 428.88-9.40L428.88-9.40L435.52 0ZM423.24-11.92Q427.04-11.92 429.04-13.56Q431.04-15.20 431.04-18.24L431.04-18.24Q431.04-21.28 429.04-22.90Q427.04-24.52 423.24-24.52L423.24-24.52L416.44-24.52L416.44-11.92L423.24-11.92Z M473.60-28L477.60-28L477.60 0L474.32 0L457.52-20.88L457.52 0L453.52 0L453.52-28L456.80-28L473.60-7.12L473.60-28Z"/></g>
</svg>
</g></svg></svg>